<?xml version="1.0" standalone="no"?><!DOCTYPE svg PUBLIC "-//W3C//DTD SVG 1.1//EN" "http://www.w3.org/Graphics/SVG/1.1/DTD/svg11.dtd"><svg t="1750497311728" class="icon" viewBox="0 0 1024 1024" version="1.1" xmlns="http://www.w3.org/2000/svg" p-id="6403" xmlns:xlink="http://www.w3.org/1999/xlink" width="200" height="200"><path d="M415.808853 45.805227l6.8864-0.0256c6.193493-0.022187 12.386987-0.034133 18.58048-0.04096l11.670187-0.02048c12.229973-0.022187 24.461653-0.039253 36.691627-0.04608 14.006613-0.006827 28.01152-0.037547 42.018133-0.085334 10.897067-0.039253 21.794133-0.05632 32.6912-0.058026 6.475093-0.001707 12.94848-0.011947 19.421867-0.042667 110.661973-0.498347 209.67936 36.66432 288.8704 115.0464C894.98112 183.108267 914.45248 209.626453 930.133333 237.226667l2.018987 3.54304c30.149973 53.541547 47.6416 114.868907 47.776427 176.416426l0.034133 6.843734c0.03584 7.453013 0.052907 14.90432 0.069973 22.357333l0.022187 7.770453c0.032427 12.199253 0.05632 24.398507 0.069973 36.59776 0.017067 13.94688 0.06144 27.89376 0.131414 41.842347 0.0512 10.861227 0.0768 21.722453 0.08192 32.58368 0.003413 6.44608 0.018773 12.893867 0.06144 19.339947C981.000533 677.74464 956.0832 766.902613 896 839.68l-2.425173 2.950827C876.72832 862.998187 858.827093 881.360213 837.973333 897.706667l-5.03296 4.087466C817.834667 913.82784 801.785173 923.902293 785.066667 933.546667l-3.626667 2.100906c-51.88096 29.699413-113.240747 45.858133-172.919467 45.98784l-6.843733 0.034134c-7.453013 0.03584-14.90432 0.052907-22.357333 0.069973l-7.770454 0.022187c-12.199253 0.032427-24.398507 0.05632-36.59776 0.069973-13.94688 0.017067-27.89376 0.06144-41.842346 0.131413-10.861227 0.0512-21.722453 0.0768-32.58368 0.08192-6.44608 0.003413-12.893867 0.018773-19.339947 0.06144-110.779733 0.713387-209.457493-36.625067-288.9728-114.372266C143.51872 858.845867 135.668053 849.457493 128 839.68l-3.966293-4.85376C83.682987 784.406187 58.54208 723.974827 47.786667 660.48l-0.887467-5.039787c-3.584-23.7824-3.089067-47.77472-3.095893-71.765333a6856.6016 6856.6016 0 0 0-0.02048-11.552427c-0.03072-13.520213-0.044373-27.040427-0.042667-40.56064 0.003413-12.46208-0.034133-24.922453-0.08704-37.382826-0.044373-10.811733-0.063147-21.62176-0.06144-32.433494 0-6.406827-0.006827-12.811947-0.044373-19.218773C43.3152 399.305387 46.80704 357.200213 59.733333 315.733333l1.24416-4.051626C89.280853 221.20448 153.101653 142.39744 235.52 95.573333l3.54304-2.018986c53.963093-30.3872 114.747733-47.6928 176.745813-47.74912z" fill="#13227a" p-id="6404" data-spm-anchor-id="a313x.search_index.0.i2.3efd3a819PHml6" class="selected"></path><path d="M626.312533 231.074133c12.51328 11.025067 12.51328 11.025067 16.83456 18.218667 4.724053 6.418773 9.432747 8.48384 16.585387 11.613867 26.166613 12.299947 46.660267 29.431467 57.514667 56.854186 9.127253 28.183893 5.978453 56.987307-7.33696 83.4048-2.85696 5.070507-5.920427 9.990827-8.99072 14.93504-3.756373 7.07072-4.939093 13.544107-5.705387 21.4528C694.613333 442.026667 694.613333 442.026667 692.860587 446.359893c-1.774933 4.491947-2.065067 7.61344-1.98144 12.414294l0.034133 4.08576c0.223573 3.713707 0.63488 7.417173 1.119573 11.106986 3.013973 23.261867 3.72736 46.34624-10.646186 66.013867-4.783787 5.720747-9.731413 10.32704-15.786667 14.685867 0.672427 13.10208 8.874667 23.210667 18.240853 31.786666 5.333333 4.435627 10.95168 8.09472 16.851627 11.733334 21.97504 13.687467 32.098987 32.385707 38.294187 57.173333 4.478293 20.845227 6.15424 41.340587 6.93248 62.614187 0.165547 4.324693 0.334507 8.651093 0.52224 12.975786 0.116053 2.65728 0.216747 5.31456 0.30208 7.973547 0.319147 7.435947 1.605973 13.581653 4.189866 20.543147 0.853333 6.828373 0.31232 9.66144-2.986666 15.786666-3.775147 4.61312-5.266773 6.0928-10.666667 8.106667-4.864 0.3328-4.864 0.3328-10.46016 0.213333l-6.21056-0.080213c-4.27008-0.08704-8.541867-0.175787-12.811947-0.26624-25.216-0.32256-44.793173 4.947627-66.81088 17.124693-22.623573 12.494507-44.997973 18.336427-70.44608 21.732694-3.170987 0.426667-6.335147 0.914773-9.494186 1.421653-6.76864 0.863573-13.422933 1.119573-20.232534 1.160533l-3.96288 0.03584c-4.230827 0.03072-8.459947 0.04096-12.690773 0.044374l-4.38272 0.00512c-24.4992-0.018773-48.45568-1.30048-72.630613-5.551787l-4.143787-0.720213c-23.307947-4.263253-44.09344-13.09696-64.443733-25.09312-26.361173-15.476053-50.3808-19.186347-80.498347-19.080534-3.382613 0.003413-6.765227-0.047787-10.14784-0.098986l-6.034773-0.01536c-12.199253-2.42176-18.9696-15.977813-25.511254-25.745067-5.742933-8.937813-10.059093-18.392747-14.020266-28.233387l-1.759574-4.046506c-6.724267-17.96096-6.41536-42.71616 1.319254-60.212907 3.6864-6.879573 7.558827-13.22496 12.386986-19.367253l2.73408-3.5072c14.414507-16.319147 34.29888-24.364373 55.61344-26.038614l4.143787-0.206506c9.51808-0.4864 15.363413-2.030933 22.335147-8.987307 7.30624-9.391787 12.996267-19.319467 18.69824-29.7216 7.959893-14.37696 17.72032-26.04032 29.595306-37.352107l3.413334-3.413333-2.819414-2.520747c-16.09216-15.127893-27.511467-32.90112-34.727253-53.799253l-1.66912-3.95776c-5.275307-13.83936-5.766827-28.644693-5.690027-43.29472l0.00512-5.36064c0.18432-14.793387 2.100907-28.603733 5.64736-42.960213l-4.867413-0.646827C341.333333 373.76 341.333333 373.76 337.28 370.454187c-5.79584-10.922667-3.24608-21.860693-0.10752-33.38752 6.99392-20.882773 21.853867-37.623467 40.574293-48.959147C380.586667 286.72 380.586667 286.72 384 286.72l-3.413333-5.12c-1.189547-7.389867-0.832853-13.581653 2.346666-20.37248 5.64224-4.43392 10.274133-5.051733 17.252694-6.17472 13.7984-2.44224 25.449813-11.19744 36.174506-19.780267 49.84832-39.647573 138.914133-45.202773 189.952-4.1984z" fill="#444B55" p-id="6405"></path><path d="M489.173333 252.054187l4.154027 0.058026c29.323947 0.672427 56.569173 9.393493 78.452053 29.288107 3.237547 3.474773 5.16608 6.55872 7.313067 10.760533 4.568747 8.077653 11.316907 9.890133 19.72736 12.986027C612.283733 310.3232 625.066667 318.75072 634.88 329.386667v3.413333l-4.74624-0.360107c-14.349653-0.846507-14.349653-0.846507-27.147947 4.734294-7.831893 7.261867-10.56256 13.359787-11.0592 23.886506-0.03072 5.951147 0.064853 11.87328 0.28672 17.819307-5.07392-0.54784-7.825067-1.032533-11.572906-4.599467-2.573653-4.867413-2.766507-8.475307-2.93376-13.960533-0.67072-10.60864-2.23232-17.23392-10.24-24.639147-9.12384-6.15936-19.223893-5.787307-29.866667-4.58752-10.17856 3.949227-16.69632 10.9056-22.347093 20.10624-1.962667 4.805973-1.773227 8.74496-1.759574 13.92128-0.684373 9.429333-0.684373 9.429333-3.97312 13.1584-3.628373 2.198187-7.314773 3.95776-11.173546 5.720747-13.59872 7.509333-24.93952 15.232-30.107307 30.54592-0.78848 4.614827-0.837973 9.040213-0.826027 13.7216l-0.013653 5.271893c0.211627 4.72576 0.866987 9.007787 1.933653 13.607254l-5.12-4.48c-16.571733-14.969173-16.571733-14.969173-37.49376-19.874134-5.184853 0.689493-9.21088 3.012267-13.70624 5.5808h-3.413333a337.82272 337.82272 0 0 0-3.413333 8.533334l-1.36704 3.206826c-4.70016 12.09856-6.741333 26.246827-2.153814 38.673067 1.65376 3.155627 3.428693 6.2464 5.22752 9.320107l-1.706666 3.413333c-19.510613-22.772053-25.714347-46.465707-24.241494-76.018347 1.522347-18.326187 5.11488-36.78208 12.694187-53.568853 2.312533-6.249813 2.643627-12.37504 1.307307-18.8928-2.77504-4.1984-2.77504-4.1984-6.826667-6.826667-2.2784-1.703253-4.553387-3.40992-6.826667-5.12 14.86336-14.778027 31.162027-20.590933 51.252907-25.613653 4.995413-1.66912 7.232853-2.527573 10.187093-6.813013 1.10592-3.6352 1.10592-3.6352 1.385814-7.57248l0.4608-3.940694c-0.15872-4.381013-1.344853-6.930773-3.55328-10.673493 3.79904-3.027627 7.604907-6.050133 11.41248-9.065813l3.237546-2.583894c3.053227-2.413227 6.137173-4.778667 9.243307-7.123626l4.12672-3.13344c6.39488-2.88256 12.194133-2.679467 19.126613-2.51904z" fill="#72707B" p-id="6406"></path><path d="M628.053333 368.64c15.537493-0.790187 15.537493-0.790187 22.186667 5.12 11.221333 15.950507 11.723093 37.5808 10.24 56.32-1.119573 4.713813-2.520747 9.260373-3.97312 13.88032-2.450773 10.45504-2.471253 22.382933-0.293547 32.913067 1.15712 5.978453 1.235627 11.886933 1.28 17.952426l0.105814 3.570347c0.075093 9.7024-1.983147 16.47104-8.61184 23.62368-16.233813 12.61568-35.234133 20.698453-55.067307 25.82016l-6.186667 1.92c-31.296853 8.113493-64.74752 4.87424-93.492906-9.2672-9.63072-6.294187-13.334187-15.204693-17.440427-25.506133l-1.580373-3.892907c-3.456-8.704-6.075733-17.133227-7.59296-26.400427l3.00544 0.831147c14.542507 3.329707 33.293653 2.860373 46.487893-4.24448 6.152533-4.232533 6.152533-4.232533 10.24-10.24 0.86016-9.52832 0.86016-9.52832-2.56-18.133333-4.614827-4.384427-9.4464-8.065707-14.67392-11.687254-5.096107-4.09088-8.00256-7.26016-9.099947-13.812053 0.733867-4.154027 0.733867-4.154027 3.493547-6.867627l3.853653-2.300586 4.220587-2.599254c3.03104-1.759573 6.065493-3.510613 9.106773-5.25312 11.287893-6.541653 18.36032-11.94496 22.725974-24.680106h3.413333c2.153813 3.060053 2.153813 3.060053 4.58752 7.145813 7.760213 11.97056 17.580373 18.085547 31.25248 21.86752 17.117867 3.47648 40.03328 5.2736 55.466667-4.374187 3.84-6.239573 5.05344-12.21632 4.266666-19.519146-3.590827-4.870827-3.590827-4.870827-8.533333-8.533334-6.826667-7.749973-6.826667-7.749973-6.826667-13.653333z" fill="#FBE4C4" p-id="6407"></path><path d="M610.986667 581.973333c14.578347 27.680427 22.782293 63.694507 15.465813 94.61248-1.69472 3.74272-2.74432 5.66272-6.398293 7.63392-44.94848 13.919573-94.206293 16.513707-140.480854 8.686934-3.981653-0.576853-7.963307-1.14688-11.946666-1.706667-3.252907-24.40192-0.503467-44.270933 13.653333-64.853333 6.278827-7.918933 13.274453-15.115947 20.48-22.186667l4.8128-4.74624c8.54016-8.057173 13.4656-12.187307 25.472-12.40576l5.08928 0.15872c21.78048 0.467627 41.622187-0.093867 62.759253-5.573973C605.866667 580.266667 605.866667 580.266667 610.986667 581.973333z" fill="#79CFFA" p-id="6408"></path><path d="M430.08 663.893333l0.259413 3.15392c0.397653 4.74624 0.815787 9.489067 1.23392 14.2336l0.406187 4.962987 0.433493 4.816213 0.37888 4.415147c0.559787 4.374187 0.559787 4.374187 2.496854 8.66816 4.160853 10.600107-1.565013 23.40352-4.995414 33.66912-0.92672 2.848427-1.851733 5.69856-2.773333 8.546987l-1.339733 4.135253c-2.367147 7.471787-4.396373 15.034027-6.340267 22.62528-7.947947-2.341547-14.457173-5.6576-21.546667-9.919147-10.66496-6.265173-21.469867-11.327147-33.066666-15.680853l-3.90656-1.532587c-9.472-3.479893-19.008853-4.93568-28.992854-6.26688C327.68 738.986667 327.68 738.986667 324.266667 737.28l0.8192-5.732693c0.692907-5.507413 1.047893-10.932907 1.18784-16.48128l0.12288-4.43904c0.073387-3.022507 0.126293-6.045013 0.160426-9.06752 0.351573-10.856107 0.351573-10.856107 3.756374-16.19968 11.849387-7.610027 23.20896-8.695467 36.9408-9.519787 19.61984-1.442133 37.357227-5.0176 56.12544-11.006293C426.666667 663.893333 426.666667 663.893333 430.08 663.893333z" fill="#FD7C7C" p-id="6409"></path><path d="M452.160853 557.545813l4.10112 1.355094c9.83552 3.408213 17.266347 7.461547 25.018027 14.539093-2.469547 5.90336-5.533013 8.983893-10.453333 13.013333-5.804373 4.978347-10.528427 10.01472-15.146667 16.105814-18.131627 23.1168-46.544213 33.53088-75.093333 37.440853-3.437227 0.4096-6.874453 0.805547-10.313387 1.19296l-5.64736 0.638293c-3.69664 0.40448-7.396693 0.781653-11.098453 1.129814-20.87424 2.18112-38.39488 8.193707-52.48 24.219306-7.611733 11.318613-8.27392 21.13024-8.459947 34.47296-0.059733 3.310933-0.13312 6.621867-0.22016 9.9328l-0.064853 4.401494c-0.51712 4.729173-1.933653 8.436053-3.87584 12.75904-3.884373-3.57376-6.331733-6.888107-8.639147-11.62752l-1.660587-3.339947c-5.9136-13.6704-8.4736-29.45536-3.626666-43.926187 6.229333-10.69568 17.355093-21.203627 28.99968-25.6256 7.09632-1.559893 14.383787-1.6128 21.620053-2.02752 17.90464-1.477973 30.237013-8.342187 42.113707-21.753173 9.248427-11.74528 16.65024-24.441173 23.92576-37.471573 5.9904-10.693973 11.142827-19.126613 22.0672-25.321814l4.493653-2.587306c11.446613-6.301013 22.62016-1.4336 34.440533 2.479786z" fill="#FB7C7C" p-id="6410"></path><path d="M602.0864 257.780053c6.744747 5.77024 11.8784 10.978987 16.13312 18.766507 4.923733 8.142507 10.963627 10.496 19.647147 13.692587 19.392853 7.908693 35.838293 18.331307 44.967253 38.080853 3.8144 11.06944 3.78368 21.89312 3.24608 33.493333h-3.413333a125.144747 125.144747 0 0 1-4.37248-7.14752c-6.900053-10.564267-14.68416-15.194453-26.907307-18.092373a290.40128 290.40128 0 0 0-11.526827-2.11968c-6.270293-2.082133-7.994027-4.901547-11.80672-10.187093-12.68224-10.81344-27.726507-17.462613-43.026773-23.732907-3.945813-2.413227-5.420373-5.03808-7.74656-9.014613-13.267627-20.543147-35.16416-30.114133-58.453333-35.519147-7.166293-0.996693-14.329173-1.547947-21.546667-2.02752l-5.686613-0.423253c-4.573867-0.33792-9.14944-0.658773-13.72672-0.96256 4.55168-4.55168 9.51808-5.384533 15.573333-6.934187l3.305813-0.896c32.837973-8.605013 77.093547-7.69536 105.340587 13.023573z" fill="#615F6C" p-id="6411"></path><path d="M563.355307 598.836907c3.858773-0.19968 7.71584-0.325973 11.578026-0.436907l3.751254-0.197973c6.475093-0.100693 9.654613 0.484693 14.84288 4.457813 3.971413 5.128533 7.227733 10.19392 10.313386 15.901013l3.126614 5.645654c2.507093 6.02112 3.2768 9.35936 2.312533 15.793493-2.819413 5.133653-2.819413 5.133653-6.719147 10.453333l-2.07872 2.865494a640.029013 640.029013 0 0 1-4.350293 5.899946 781.55776 781.55776 0 0 0-6.47168 8.840534c-12.7232 17.401173-12.7232 17.401173-20.773547 18.827946-8.241493-1.169067-13.318827-5.374293-19.872426-10.299733a3093.947733 3093.947733 0 0 0-3.874134-2.829653A1131.37152 1131.37152 0 0 1 534.186667 665.6l-5.246294-3.899733c-9.80992-7.441067-9.80992-7.441067-11.820373-11.460267-1.256107-12.25216 2.23744-19.8912 8.106667-30.506667l2.29376-4.41344c6.336853-11.779413 6.336853-11.779413 13.492906-14.573226 7.364267-1.385813 14.8736-1.4848 22.341974-1.90976z" fill="#434B55" p-id="6412"></path><path d="M626.346667 720.213333a927.146667 927.146667 0 0 1 6.079146 10.666667l1.77152 3.032747c2.261333 4.066987 4.043093 7.493973 4.29568 12.187306-3.06688 5.029547-7.850667 7.330133-12.893866 10.059094l-3.280214 1.810773c-14.190933 7.615147-27.497813 11.656533-43.758933 10.03008-5.932373-2.966187-7.109973-10.006187-9.53344-15.93344-2.587307-4.875947-4.471467-6.964907-9.239893-9.66656-9.770667-1.245867-9.770667-1.245867-18.133334 3.2-4.532907 5.9648-8.064 12.163413-11.52 18.80064C527.36 768 527.36 768 523.579733 769.339733c-20.421973 1.575253-44.694187 2.885973-62.779733-8.1664 0.930133-12.095147 4.452693-22.746453 8.533333-34.133333l6.15936 0.745813c45.149867 5.097813 92.059307 5.423787 136.200534-6.632106 4.98176-1.061547 9.5744-1.097387 14.65344-0.940374z" fill="#7AD0FC" p-id="6413"></path><path d="M658.773333 612.693333l2.44736 1.880747c6.22592 4.732587 12.479147 9.202347 19.099307 13.37344 18.10432 12.151467 22.301013 27.706027 26.560853 48.53248 3.729067 22.941013 3.304107 46.170453 3.09248 69.333333l-30.72 1.706667c-6.186667-12.479147-6.186667-12.479147-8.20736-16.585387-3.56352-7.185067-7.425707-14.01856-11.63264-20.855466-3.3536-6.07232-4.70016-9.591467-3.2-16.42496 0.807253-2.53952 1.662293-5.065387 2.56-7.574187 6.73792-23.273813 4.799147-49.901227 0-73.386667z" fill="#FC7C7C" p-id="6414"></path><path d="M628.053333 368.64c15.537493-0.790187 15.537493-0.790187 22.186667 5.12 11.221333 15.950507 11.723093 37.5808 10.24 56.32-1.119573 4.713813-2.520747 9.260373-3.97312 13.88032-2.450773 10.45504-2.471253 22.382933-0.293547 32.913067 1.15712 5.978453 1.235627 11.886933 1.28 17.952426l0.105814 3.570347c0.075093 9.7024-1.983147 16.47104-8.61184 23.62368C634.20416 533.507413 617.10848 541.371733 599.04 546.133333c1.959253-5.87776 3.26656-6.6304 8.21248-10.026666 8.22272-5.986987 14.32576-11.690667 16.86016-21.920427 1.537707-11.3664 1.339733-23.371093-0.325973-34.720427-1.983147-15.614293-1.250987-29.55264 3.013973-44.699306 1.63328-6.109867 2.3552-12.054187 2.95936-18.33984l-3.413333-1.706667 4.799146-1.38752c5.2736-1.964373 7.154347-2.901333 10.560854-7.145813 1.691307-5.13024 2.19136-9.980587 1.706666-15.36-3.590827-4.870827-3.590827-4.870827-8.533333-8.533334-6.826667-7.749973-6.826667-7.749973-6.826667-13.653333z" fill="#ECCEAA" p-id="6415"></path><path d="M438.613333 307.2l-3.37408 2.75968C419.524267 323.357013 411.050667 336.638293 406.186667 356.693333l4.672853-1.119573 6.099627-1.440427 6.060373-1.440426C428.373333 351.573333 428.373333 351.573333 433.493333 351.573333c-1.237333 6.802773-3.0464 13.320533-5.014186 19.94752-4.56192 15.901013-7.284053 30.404267-7.719254 46.979414C419.84 423.253333 419.84 423.253333 416.57344 426.46016 413.013333 428.373333 413.013333 428.373333 409.6 428.373333a337.82272 337.82272 0 0 0-3.413333 8.533334l-1.36704 3.206826c-4.70016 12.09856-6.741333 26.246827-2.153814 38.673067 1.65376 3.155627 3.428693 6.2464 5.22752 9.320107l-1.706666 3.413333c-19.510613-22.772053-25.714347-46.465707-24.241494-76.018347 1.522347-18.326187 5.11488-36.78208 12.694187-53.568853 2.312533-6.249813 2.643627-12.37504 1.307307-18.8928-2.77504-4.1984-2.77504-4.1984-6.826667-6.826667-2.2784-1.703253-4.553387-3.40992-6.826667-5.12 10.984107-10.92096 40.067413-32.018773 56.32-23.893333z" fill="#8C8B94" p-id="6416"></path><path d="M531.626667 587.625813l5.067093 0.407894C541.013333 588.8 541.013333 588.8 544.426667 592.213333l-2.47296 2.36544c-33.56672 31.819093-33.56672 31.819093-47.55968 74.827094l-0.216747 4.150613-0.2048 4.309333-0.221867 4.370774c-0.180907 3.556693-0.35328 7.113387-0.523946 10.67008-14.62784 0.121173-14.62784 0.121173-20.48-0.853334l-5.12-0.853333c-3.252907-24.40192-0.503467-44.270933 13.653333-64.853333 31.97952-40.338773 31.97952-40.338773 50.346667-38.720854z" fill="#ACE9FC" p-id="6417"></path><path d="M610.986667 581.973333c14.580053 27.680427 22.782293 63.694507 15.465813 94.614187-1.74592 4.22912-2.904747 5.715627-6.859093 8.05888-4.010667 1.46944-7.81824 2.397867-12.020054 3.140267l-3.6608 0.66048c-2.74944 0.43008-5.517653 0.750933-8.285866 1.046186l1.667413-5.113173c2.274987-7.947947 2.35008-15.906133 2.413227-24.116907 0.303787-8.808107 3.007147-13.129387 7.866026-20.263253 1.522347-9.069227-2.065067-15.286613-6.505813-22.93248C588.8 595.39456 588.8 595.39456 588.8 587.093333l-5.12-1.706666a1304.85248 1304.85248 0 0 1 10.77248-2.665814l6.060373-1.50016C605.866667 580.266667 605.866667 580.266667 610.986667 581.973333z" fill="#59B0FA" p-id="6418"></path><path d="M467.626667 484.693333c6.22592 0.0512 11.347627 0.894293 17.066666 3.413334 4.102827 4.6592 7.077547 9.5232 10.253654 14.85312 9.110187 15.074987 21.51424 27.593387 34.11968 39.760213a1371.48416 1371.48416 0 0 1 5.225813 5.225813L537.6 551.253333c-16.534187 1.297067-34.3296-3.718827-47.793493-13.52704C478.47936 525.955413 467.626667 501.024427 467.626667 484.693333z" fill="#FCEDDB" p-id="6419"></path><path d="M486.93248 252.265813l6.48704 0.141654L498.346667 252.586667c-5.98528 6.454613-11.782827 10.856107-19.520854 15.039146l-5.645653 3.12832c-5.77024 2.402987-9.617067 2.786987-15.793493 2.312534v3.413333l4.160853 1.17248c7.637333 2.814293 14.419627 6.68672 21.439147 10.774187v1.706666l-4.626774 1.19296c-11.738453 3.165867-22.454613 6.693547-33.10592 12.70784L442.026667 305.493333l-3.413334-1.706666 2.47296-2.087254c3.198293-3.664213 3.556693-5.812907 4.032854-10.606933l0.4608-3.938987c-0.15872-4.381013-1.344853-6.930773-3.55328-10.673493 3.79904-3.027627 7.604907-6.050133 11.414186-9.06752l3.23584-2.582187c10.274133-8.122027 16.597333-12.946773 30.255787-12.56448z" fill="#8C8B94" p-id="6420"></path><path d="M469.333333 727.04c2.773333 0.24064 5.546667 0.49152 8.32 0.74752l4.67968 0.41984C486.4 728.746667 486.4 728.746667 489.813333 730.453333a1065.05728 1065.05728 0 0 1-10.24 35.84l-6.505813-0.64-3.6608-0.360106C465.92 764.586667 465.92 764.586667 460.8 761.173333c0.930133-12.095147 4.452693-22.746453 8.533333-34.133333z" fill="#ABE8FA" p-id="6421"></path><path d="M626.346667 720.213333a927.146667 927.146667 0 0 1 6.079146 10.666667l1.77152 3.032747c4.14208 7.4496 4.14208 7.4496 3.92192 12.38016-2.607787 4.988587-7.007573 7.036587-11.772586 9.760426h-3.413334l-1.302186-2.609493a1597.89056 1597.89056 0 0 0-5.951147-11.68384l-2.046293-4.10624-2.034347-3.933867-1.841493-3.628373c-2.582187-3.607893-4.949333-4.80768-9.0112-6.464853 2.343253-0.58368 4.691627-1.148587 7.04-1.706667l3.959466-0.960853c4.932267-0.843093 9.606827-0.861867 14.600534-0.745814z" fill="#5AB0FA" p-id="6422"></path><path d="M573.44 629.76c1.16736 3.013973 1.16736 3.013973 1.706667 6.826667-2.879147 4.555093-6.52288 8.00256-10.24 11.946666l-13.653334-8.533333c1.28-4.160853 1.28-4.160853 3.413334-8.533333 5.76-2.773333 12.499627-1.82784 18.773333-1.706667z" fill="#F1797A" p-id="6423"></path><path d="M501.22752 376.214187l4.179627 0.525653L508.586667 377.173333c-5.481813 4.31616-11.241813 7.819947-17.28 11.306667l-5.4528 3.160747c-2.629973 1.493333-5.282133 2.952533-7.9872 4.30592 1.89952-8.22784 3.505493-13.467307 10.24-18.773334 5.282133-1.76128 7.724373-1.664 13.120853-0.959146z" fill="#61606C" p-id="6424"></path><path d="M465.92 421.546667l0.314027 3.433813c1.0496 11.15648 1.0496 11.15648 3.099306 22.166187-6.495573-5.474987-12.878507-10.934613-18.773333-17.066667a2123.451733 2123.451733 0 0 1 6.720853-4.266667l3.77856-2.399573C464.213333 421.546667 464.213333 421.546667 465.92 421.546667z" fill="#605F6B" p-id="6425"></path><path d="M590.506667 349.866667c2.025813 6.075733 1.872213 10.98752 1.814186 17.38752l-0.047786 6.5792L592.213333 378.88l-8.533333-1.706667c-1.0752-17.05984-1.0752-17.05984 3.413333-24.214186l3.413334-3.09248z" fill="#8C8B94" p-id="6426"></path><path d="M411.306667 494.933333a826.5216 826.5216 0 0 1 16.534186 8.42752l5.03296 2.60608C436.906667 508.586667 436.906667 508.586667 438.613333 513.706667c-10.340693-2.38592-17.821013-8.415573-25.6-15.36l-1.706666-3.413334z" fill="#595A66" p-id="6427"></path></svg>